<mxfile host="app.diagrams.net" modified="2023-07-22T14:40:51.159Z" agent="Mozilla/5.0 (Windows NT 10.0; Win64; x64) AppleWebKit/537.36 (KHTML, like Gecko) Chrome/115.0.0.0 Safari/537.36 Edg/115.0.1901.183" version="21.6.5" etag="cbU6NDbhcRDyLgZx4e-w" type="github">
  <diagram name="Halaman-1" id="mmzkrZ3bWaOufJRhY-9n">
    <mxGraphModel>
      <root>
        <mxCell id="0" />
        <mxCell id="1" parent="0" />
      </root>
    </mxGraphModel>
  </diagram>
</mxfile>
